<?xml version="1.0" encoding="UTF-8"?> <svg xmlns="http://www.w3.org/2000/svg" width="718" height="288" viewBox="0 0 718 288" fill="none"> <path fill-rule="evenodd" clip-rule="evenodd" d="M262.78 34.1126C246.218 36.4817 234.507 42.3271 225.385 52.778C221.308 57.4498 216.736 67.0972 215.505 73.6249C214.125 80.9499 214.226 93.0439 215.717 98.9145C217.603 106.334 219.64 111.189 222.998 116.267L224.533 118.586H246.269C258.223 118.586 268.004 118.348 268.004 118.058C268.004 117.767 266.414 116.483 264.47 115.202C258.166 111.048 251.196 105.33 246.962 100.84C239.816 93.2597 237.099 86.0675 237.062 74.6331C237.01 58.1918 245.137 46.6111 260.428 41.3399C264.752 39.8492 266.109 39.6808 273.843 39.6721C283.928 39.6617 287.896 40.5321 295.303 44.3803C305.322 49.5851 313.975 60.6642 318.346 73.8819C320.036 78.9921 322.699 90.9613 322.71 93.4988C322.725 96.6333 323.353 97.1699 326.756 96.9542L329.769 96.763L330.155 74.0184C330.369 61.5088 330.736 47.8854 330.971 43.7434L331.399 36.2131H328.038H324.677L324.028 39.8953C322.189 50.34 318.804 51.4348 308.106 45.046C293.324 36.2186 287.886 34.4814 273.843 34.0997C268.772 33.962 263.794 33.9675 262.78 34.1126ZM421.955 34.6044C409.295 36.7061 398.499 42.032 390.53 50.107C382.851 57.8881 378.552 67.6197 377.401 79.8256C376.13 93.3101 379.118 106.704 385.451 115.912L387.29 118.586H409.078C421.062 118.586 430.866 118.369 430.866 118.104C430.866 117.838 430.03 117.127 429.009 116.524C424.519 113.871 414.626 106.001 410.487 101.79C403.229 94.4043 399.523 85.2235 399.523 74.6331C399.523 67.1341 401.235 61.1424 405.447 53.8986C407.803 49.8464 415.917 43.8233 421.7 41.8335C430.206 38.9062 441.48 38.6191 450.162 41.1093C461.242 44.2874 471.882 53.7664 477.442 65.4123C481.179 73.2389 483.279 80.2504 484.9 90.3084L485.94 96.763L489.131 96.9486L492.323 97.1349L492.339 90.1867C492.366 77.9139 493.479 41.5015 493.908 38.814L494.324 36.2131H490.846C488.578 36.2131 487.3 36.4805 487.172 36.9815C487.064 37.4044 486.511 39.6771 485.944 42.0327C483.729 51.2307 480.15 51.2952 465.946 42.391C460.372 38.8976 454.815 36.5401 448.996 35.2013C443.595 33.9589 427.927 33.6128 421.955 34.6044ZM233.739 137.486C232.342 138.182 231.561 139.128 231.147 140.631C230.211 144.02 231.354 145.605 236.534 148.099C241.366 150.426 242.168 151.219 242.183 153.683C242.196 155.945 240.404 157.313 237.426 157.313C235.442 157.313 234.638 156.972 233.643 155.707C231.995 153.611 229.548 154.298 230.985 156.452C231.871 157.779 234.169 158.542 237.276 158.542C242.29 158.542 244.597 156.793 244.631 152.963C244.655 150.239 242.794 148.334 238.374 146.557C236.647 145.862 234.671 144.54 233.983 143.619L232.733 141.945L233.99 140.254C235.776 137.852 239.006 137.641 241.31 139.776C242.401 140.788 243.234 141.149 243.61 140.773C244.59 139.792 243.564 138.254 241.299 137.307C238.582 136.171 236.271 136.226 233.739 137.486ZM262.689 137.084C256.778 138.797 253.959 148.174 257.569 154.111C260.259 158.537 266.84 160.012 271.14 157.154C277.801 152.726 277.415 141.29 270.486 137.796C267.584 136.332 265.836 136.172 262.689 137.084ZM294.053 136.874C293.676 137.127 293.175 138.026 292.939 138.871C292.703 139.717 292.255 140.961 291.943 141.638C290.803 144.108 285.827 157.385 285.827 157.955C285.827 158.278 286.204 158.542 286.665 158.542C287.126 158.542 288 157.229 288.606 155.622C289.213 154.016 290.011 152.499 290.38 152.251C290.749 152.002 292.933 151.795 295.233 151.79L299.415 151.78L300.91 155.161C302.044 157.726 302.72 158.542 303.707 158.542C304.509 158.542 304.888 158.247 304.694 157.774C304.262 156.725 299.617 144.944 297.847 140.408C296.451 136.83 295.473 135.92 294.053 136.874ZM316.709 136.782C316.137 137.041 315.941 139.866 315.941 147.836V158.542H317.477C318.97 158.542 319.014 158.419 319.014 154.239V149.936L321.011 149.933C325.949 149.925 329.485 147.757 330.32 144.227C330.816 142.132 329.404 138.901 327.464 137.688C326.064 136.813 318.122 136.144 316.709 136.782ZM346.362 137.122C343.618 138.624 342.829 141.688 344.233 145.383C344.78 146.823 344.648 147.288 343.288 148.708C342.419 149.616 341.545 151.357 341.347 152.578C341.038 154.482 341.253 155.063 342.859 156.67C344.412 158.223 345.222 158.542 347.603 158.542C349.197 158.542 351.258 158.079 352.235 157.502C353.888 156.525 354.065 156.525 355.143 157.502C355.775 158.075 356.806 158.542 357.434 158.542C358.418 158.542 358.341 158.296 356.875 156.765C355.208 155.026 355.194 154.948 356.182 153.036C356.738 151.962 357.078 150.617 356.94 150.049C356.764 149.328 356.378 149.713 355.665 151.319C355.103 152.588 354.301 153.609 353.883 153.59C353.464 153.57 351.933 152.118 350.479 150.362L347.836 147.17L349.25 146.254C351.862 144.562 354.044 142.05 354.044 140.735C354.044 137.58 349.463 135.426 346.362 137.122ZM388.04 137.279C386.963 137.765 385.627 139.043 385.072 140.117C383.389 143.372 384.65 145.301 390.237 148.019C393.188 149.454 395.224 150.881 395.81 151.924C396.658 153.437 396.63 153.706 395.454 155.287C393.616 157.76 389.687 158.027 387.761 155.81C386.289 154.116 385.107 153.816 384.404 154.955C384.149 155.367 384.669 156.278 385.631 157.106C386.942 158.234 388.024 158.542 390.676 158.542C396.406 158.542 399.394 156.103 398.634 152.048C398.203 149.75 396.449 148.278 392.148 146.606C388.503 145.188 387.231 143.967 387.231 141.885C387.231 138.558 391.763 137.117 394.774 139.486C396.701 141.003 397.679 141.052 397.679 139.634C397.679 137.199 391.537 135.698 388.04 137.279ZM415.505 137.796C411.51 139.831 409.775 143.386 410.138 148.798C410.602 155.719 413.979 158.889 420.391 158.426C426.663 157.971 429.98 153.699 429.532 146.652C429.242 142.092 427.643 139.447 424.079 137.628C420.989 136.052 418.847 136.093 415.505 137.796ZM441.745 136.801C441.508 137.038 441.32 140.436 441.327 144.353C441.348 155.177 443.458 158.542 450.225 158.542C453.75 158.542 456.376 157.223 457.932 154.67C458.963 152.979 459.132 151.551 459.134 144.513C459.136 137.043 459.042 136.341 458.061 136.527C457.118 136.707 456.947 137.764 456.678 145.116C456.413 152.334 456.2 153.7 455.142 154.945C453.346 157.057 452.896 157.293 450.646 157.304C445.709 157.326 444.777 155.498 444.387 145.025C444.133 138.189 443.912 136.701 443.127 136.551C442.604 136.452 441.982 136.564 441.745 136.801ZM472.334 137.153C472.157 137.615 472.088 142.687 472.181 148.422L472.35 158.85L477.574 159.037C480.447 159.14 483.704 159.056 484.812 158.852C488.506 158.17 486.173 157.313 480.622 157.313C474.053 157.313 474.554 158.241 474.343 145.684C474.235 139.251 473.983 136.751 473.426 136.565C473.003 136.425 472.512 136.689 472.334 137.153ZM269.532 139.589C272.855 142.204 273.9 148.077 271.923 153.021C269.582 158.873 262.144 158.63 259.633 152.619C256.979 146.266 260.448 138.257 265.853 138.257C266.959 138.257 268.589 138.847 269.532 139.589ZM326.344 139.876C327.044 140.767 327.618 142.251 327.618 143.174C327.618 144.098 327.044 145.582 326.344 146.472C325.276 147.831 324.582 148.092 322.042 148.092H319.014V143.174V138.257H322.042C324.582 138.257 325.276 138.518 326.344 139.876ZM350.965 139.171C352.026 140.45 351.253 142.962 349.43 144.156C347.523 145.406 346.332 144.979 345.799 142.852C344.959 139.503 348.907 136.69 350.965 139.171ZM423.394 139.241C427.493 142.113 427.896 151.772 424.075 155.594C421.652 158.018 417.947 158.009 415.512 155.574C409.85 149.91 412.678 138.257 419.714 138.257C420.965 138.257 422.621 138.699 423.394 139.241ZM297.105 145.179C298 147.464 298.733 149.608 298.733 149.943C298.733 150.282 296.964 150.551 294.738 150.551C292.541 150.551 290.743 150.423 290.743 150.267C290.743 150.019 291.242 148.628 293.927 141.384C294.628 139.492 295.097 140.052 297.105 145.179ZM349.071 151.934C352.535 155.536 352.832 156.385 350.818 156.926C346.712 158.026 343.597 156.396 343.597 153.147C343.597 151.686 345.035 148.707 345.739 148.707C345.865 148.707 347.364 150.159 349.071 151.934ZM303.035 178.53C303.035 178.705 304.415 180.744 306.1 183.063C313.084 192.666 314.999 199.03 314.538 211.101C314.275 217.974 313.979 219.78 312.416 224.01C309.244 232.6 304.188 238.935 297.268 242.992C283.835 250.866 260.029 249.657 246.572 240.416C233.964 231.758 225.397 214.04 221.894 189.379C221.238 184.76 220.697 180.758 220.692 180.487C220.686 180.215 219.23 180.077 217.456 180.179L214.229 180.365L213.739 213.867C213.468 232.293 213.192 248.338 213.124 249.521L213 251.672L216.233 251.859C218.499 251.989 219.529 251.805 219.675 251.244C219.79 250.803 220.348 248.516 220.916 246.16C221.483 243.805 222.541 241.246 223.266 240.474C225.469 238.128 229.705 238.823 235.764 242.524C244.396 247.797 254.612 251.892 262.473 253.231C268.194 254.205 284.568 254.268 290.743 253.339C300.538 251.867 311.498 247.825 318.747 243.012C323.507 239.852 329.719 233.514 332.946 228.525C338.05 220.633 340.233 214.122 341.221 203.847C341.995 195.801 341.314 186.7 339.528 181.24L338.539 178.213H320.787C311.023 178.213 303.035 178.356 303.035 178.53ZM465.739 178.982C472.529 187.579 475.321 192.981 476.698 200.18C480.2 218.487 472.511 236.676 458.302 243.696C452.324 246.65 448.31 247.648 440.627 248.091C430.115 248.697 419.127 246.336 411.412 241.813C407.922 239.768 402.91 235.316 400.034 231.706C396.776 227.618 391.321 216.921 389.145 210.35C386.91 203.604 384.159 190.243 384.159 186.136C384.159 184.527 383.889 182.502 383.559 181.634C383.029 180.239 382.615 180.058 379.962 180.058H376.964L376.554 209.718C376.33 226.031 375.975 242.213 375.766 245.679L375.387 251.98H378.735H382.083L383.197 247.069C385.334 237.654 388.652 236.832 399.275 243.085C408.389 248.451 416.603 251.653 425.335 253.244C430.664 254.215 447.736 254.244 454.083 253.293C460.272 252.366 472.069 248.473 476.824 245.789C490.473 238.084 499.84 225.655 502.796 211.33C504.292 204.075 504.413 191.571 503.051 185.037C501.48 177.508 503.552 178.213 483.008 178.213C468.793 178.213 465.256 178.371 465.739 178.982Z" fill="white"></path> </svg> 